# xmcd
#
# Track frame offsets: 
#        150
#        17112
#        29350
#        39867
#        56285
#        65658
#        77548
#        88400
#        99678
#        111151
#        124401
#        140864
#        160227
#        179922
#        196352
#        220917
#        233297
#        244062
#        252602
#        263354
#        284114
#        295268
#        308174
#
# Disc length: 4254 seconds
#
# Revision: 0
# Processed by: cddbd v1.5.2PL0 Copyright (c) Steve Scherf et al.
# Submitted via: ExactAudioCopy v0.95b4
#
DISCID=5b109c17
DTITLE=Various Artist - Billboard 1965
DYEAR=2000
DGENRE=Other
TTITLE0=The Rolling Stones - (I Can't Get No) Satisfaction
TTITLE1=The Mamas and the Papas - California Dreamin'
TTITLE2=The Beatles - Help
TTITLE3=The Righteous Brothers - Unchained Melody
TTITLE4=The Beatles - Yesterday
TTITLE5=The Beach Boys - California Girls
TTITLE6=The Hollies - I'm Alive
TTITLE7=The Animals - Don't Let Me Be Misunderstood
TTITLE8=Frankie Valli and The Four Seasons - Bye Bye Baby
TTITLE9=Janis Joplin - Trouble in Mind
TTITLE10=Neil Diamond - Love on the Rocks
TTITLE11=Procol Harum - Conquistador
TTITLE12=Jane Birkin and Serge Gainsbourg - Je t'aime... moi non plus
TTITLE13=The Commodores - Three Times a Lady
TTITLE14=The Stylistics - You Make Me Feel Brand New
TTITLE15=The Animals - Bring It On Home To Me
TTITLE16=Elvis Presley - Crying in the Chapel
TTITLE17=The Ventures - Ten Seconds to Heaven
TTITLE18=George Harrison - If I Need Someone
TTITLE19=Paul Anka - My Way
TTITLE20=Gerry and The Pacemakers - Ferry Cross the Mersey
TTITLE21=Shirley Bassey - Goldfinger
TTITLE22=Bobby Darin - You're the Reason
EXTD=
EXTT0=
EXTT1=
EXTT2=
EXTT3=
EXTT4=
EXTT5=
EXTT6=
EXTT7=
EXTT8=
EXTT9=
EXTT10=
EXTT11=
EXTT12=
EXTT13=
EXTT14=
EXTT15=
EXTT16=
EXTT17=
EXTT18=
EXTT19=
EXTT20=
EXTT21=
EXTT22=
PLAYORDER=
